<svg xmlns="http://www.w3.org/2000/svg" version="1.1" xmlnsXlink="http://www.w3.org/1999/xlink" xmlnsSvgjs="http://svgjs.dev/svgjs" width="1000" height="1000" viewBox="0 0 1000 1000"><rect width="1000" height="1000" fill="#ffffff"></rect><g transform="matrix(0.7,0,0,0.7,149.57575757575756,411.7762741700953)"><svg viewBox="0 0 396 100" data-background-color="#ffffff" preserveAspectRatio="xMidYMid meet" height="252" width="1000" xmlns="http://www.w3.org/2000/svg" xmlnsXlink="http://www.w3.org/1999/xlink"><defs></defs><g id="tight-bounds" transform="matrix(1,0,0,1,0.2400000000000091,0.013450016952788246)"><svg viewBox="0 0 395.52 99.97309996609441" height="99.97309996609441" width="395.52"><g><svg viewBox="0 0 395.52 99.97309996609441" height="99.97309996609441" width="395.52"><g><svg viewBox="0 0 395.52 99.97309996609441" height="99.97309996609441" width="395.52"><g><svg viewBox="0 0 395.52 99.97309996609441" height="99.97309996609441" width="395.52"><g><rect width="395.52" height="79.82206030042917" fill="none" stroke-width="9.018103199999999" stroke="#6f605b" data-fill-palette-color="none" data-stroke-palette-color="tertiary"></rect><rect width="395.52" height="20.151039665665234" y="79.82206030042917" fill="#6f605b" data-fill-palette-color="tertiary"></rect></g><g><svg viewBox="0 0 395.52 79.82206030042917" height="79.82206030042917" width="395.52"><g transform="matrix(1,0,0,1,23.607599999999998,23.607599999999998)"><svg width="348.3048" viewBox="2.549999952316284 -34.54999923706055 372.7799987792969 34.89999771118164" height="32.60686030042918" data-palette-color="#6f605b"><path d="M22.6-25.85L22.6-25.85Q22.6-27.4 20.55-27.4L20.55-27.4Q18.45-27.4 16.95-25.05 15.45-22.7 15.45-17.2L15.45-17.2Q15.45-12.1 17.18-9.78 18.9-7.45 21.25-7.45L21.25-7.45Q22-7.45 22.63-7.75 23.25-8.05 23.65-8.65 24.05-9.25 24.05-10.1L24.05-10.1Q22.85-10.1 21.98-10.55 21.1-11 20.7-11.68 20.3-12.35 20.3-13.15L20.3-13.15Q20.3-14.95 21.25-15.85 22.2-16.75 24.5-16.75L24.5-16.75 30.55-16.75Q33.45-16.75 35.05-15.5 36.65-14.25 36.65-11.1L36.65-11.1Q36.65-6.5 32.25-3.08 27.85 0.35 21.8 0.35L21.8 0.35Q16.25 0.35 11.93-1.65 7.6-3.65 5.08-7.63 2.55-11.6 2.55-17.05L2.55-17.05Q2.55-25.15 7.45-29.85 12.35-34.55 20.45-34.55L20.45-34.55Q23.65-34.55 26.2-34.08 28.75-33.6 30.43-32.8 32.1-32 33.23-30.88 34.35-29.75 34.83-28.5 35.3-27.25 35.3-25.9L35.3-25.9Q35.3-24.95 35-24.08 34.7-23.2 33.93-22.33 33.15-21.45 31.55-20.9 29.95-20.35 27.7-20.35L27.7-20.35Q24.4-20.35 23.5-21.33 22.6-22.3 22.6-25.85ZM58.05-7L58.05-7Q59.75-7 60.97-8.5 62.2-10 62.72-12.2 63.25-14.4 63.25-16.9L63.25-16.9Q63.25-19.45 62.7-21.73 62.15-24 60.92-25.6 59.7-27.2 58.05-27.2L58.05-27.2Q56.45-27.2 55.25-25.6 54.05-24 53.45-21.7 52.85-19.4 52.85-16.9L52.85-16.9Q52.85-14.4 53.42-12.2 54-10 55.22-8.5 56.45-7 58.05-7ZM66.9-1.68Q62.95 0.3 58.02 0.3 53.1 0.3 49.17-1.68 45.25-3.65 42.9-7.6 40.55-11.55 40.55-16.9L40.55-16.9Q40.55-25 45.42-29.78 50.3-34.55 58.05-34.55 65.8-34.55 70.7-29.78 75.6-25 75.6-16.9L75.6-16.9Q75.6-11.55 73.22-7.6 70.85-3.65 66.9-1.68ZM104.65-16.45L104.65-16.45Q107.2-16.15 109.3-13.88 111.4-11.6 111.4-8.05L111.4-8.05Q111.4-4.6 110.9-2.93 110.4-1.25 109.2-0.63 108 0 105.55 0L105.55 0Q103.6 0 102.32-0.55 101.05-1.1 100.45-2.18 99.85-3.25 99.85-4.95L99.85-4.95Q99.85-7.15 99.67-8.63 99.5-10.1 99.22-10.98 98.95-11.85 98.4-12.3 97.85-12.75 97.32-12.88 96.8-13 95.9-13L95.9-13 93.25-13 93.25-7.45Q93.25-3.45 91.7-1.73 90.15 0 87.15 0L87.15 0Q84.25 0 82.87-1.63 81.5-3.25 81.5-7.1L81.5-7.1 81.5-27.95Q81.5-31.1 82.67-32.68 83.85-34.25 86.5-34.25L86.5-34.25Q88.05-34.25 89.07-34.05 90.1-33.85 91.07-33.33 92.05-32.8 92.52-31.68 93-30.55 93-28.8L93-28.8Q93-27.25 92.97-25.33 92.95-23.4 92.95-22.6L92.95-22.6Q92.95-21.95 93.27-21.5 93.6-21.05 94.27-20.78 94.95-20.5 95.95-20.5L95.95-20.5Q98.1-20.5 98.82-22.2 99.55-23.9 99.55-29.15L99.55-29.15Q99.55-31.75 100.95-33 102.35-34.25 105.45-34.25L105.45-34.25Q108.8-34.25 109.95-32.95 111.09-31.65 111.09-28.3L111.09-28.3Q111.09-22.8 109.17-19.78 107.25-16.75 104.65-16.45ZM133.09-7L133.09-7Q134.79-7 136.02-8.5 137.24-10 137.77-12.2 138.29-14.4 138.29-16.9L138.29-16.9Q138.29-19.45 137.74-21.73 137.19-24 135.97-25.6 134.74-27.2 133.09-27.2L133.09-27.2Q131.49-27.2 130.29-25.6 129.09-24 128.49-21.7 127.89-19.4 127.89-16.9L127.89-16.9Q127.89-14.4 128.47-12.2 129.04-10 130.27-8.5 131.49-7 133.09-7ZM141.94-1.68Q137.99 0.3 133.07 0.3 128.14 0.3 124.22-1.68 120.29-3.65 117.94-7.6 115.59-11.55 115.59-16.9L115.59-16.9Q115.59-25 120.47-29.78 125.34-34.55 133.09-34.55 140.84-34.55 145.74-29.78 150.64-25 150.64-16.9L150.64-16.9Q150.64-11.55 148.27-7.6 145.89-3.65 141.94-1.68ZM190.39-24.85L190.39-24.85Q190.39-25.9 189.51-26.65 188.64-27.4 187.44-27.4L187.44-27.4Q185.04-27.4 183.49-24.68 181.94-21.95 181.94-18.5L181.94-18.5Q181.94-15.85 182.94-13.73 183.94-11.6 185.84-10.35 187.74-9.1 190.24-9.1L190.24-9.1Q192.09-9.1 193.79-9.83 195.49-10.55 196.54-11.43 197.59-12.3 198.71-13.03 199.84-13.75 200.69-13.75L200.69-13.75Q201.79-13.75 202.59-12.88 203.39-12 203.39-11.05L203.39-11.05Q203.39-10 202.76-8.6 202.14-7.2 200.79-5.63 199.44-4.05 197.64-2.73 195.84-1.4 193.16-0.53 190.49 0.35 187.54 0.35L187.54 0.35Q183.64 0.35 180.31-0.83 176.99-2 174.54-4.17 172.09-6.35 170.69-9.65 169.29-12.95 169.29-17.05L169.29-17.05Q169.29-25.15 174.14-29.85 178.99-34.55 186.84-34.55L186.84-34.55Q190.84-34.55 194.24-33.2 197.64-31.85 199.64-29.45 201.64-27.05 201.64-24.2L201.64-24.2Q201.64-20.9 199.44-18.23 197.24-15.55 193.74-15.55L193.74-15.55Q191.74-15.55 190.14-16.65 188.54-17.75 188.54-19.8L188.54-19.8Q188.54-20.75 189.46-22.45 190.39-24.15 190.39-24.85ZM225.99-7L225.99-7Q227.69-7 228.91-8.5 230.14-10 230.66-12.2 231.19-14.4 231.19-16.9L231.19-16.9Q231.19-19.45 230.64-21.73 230.09-24 228.86-25.6 227.64-27.2 225.99-27.2L225.99-27.2Q224.39-27.2 223.19-25.6 221.99-24 221.39-21.7 220.79-19.4 220.79-16.9L220.79-16.9Q220.79-14.4 221.36-12.2 221.94-10 223.16-8.5 224.39-7 225.99-7ZM234.84-1.68Q230.89 0.3 225.96 0.3 221.04 0.3 217.11-1.68 213.19-3.65 210.84-7.6 208.49-11.55 208.49-16.9L208.49-16.9Q208.49-25 213.36-29.78 218.24-34.55 225.99-34.55 233.74-34.55 238.64-29.78 243.54-25 243.54-16.9L243.54-16.9Q243.54-11.55 241.16-7.6 238.79-3.65 234.84-1.68ZM260.73-13.4L260.73-6.95Q260.73-3.55 259.23-1.78 257.73 0 254.88 0L254.88 0Q252.18 0 250.68-1.63 249.18-3.25 249.18-7.15L249.18-7.15 249.18-28.25Q249.18-29.85 249.61-31.03 250.03-32.2 250.83-32.9 251.63-33.6 252.63-33.93 253.63-34.25 254.88-34.25L254.88-34.25 271.28-34.25Q274.18-34.25 275.61-33.35 277.03-32.45 277.03-30.1L277.03-30.1Q277.03-27.9 275.81-27.03 274.58-26.15 271.78-26.15L271.78-26.15 260.73-26.15 260.73-20.3 269.53-20.3Q270.88-20.3 271.81-20.1 272.73-19.9 273.31-19.43 273.88-18.95 274.11-18.28 274.33-17.6 274.33-16.55L274.33-16.55Q274.33-14.85 273.08-14.13 271.83-13.4 269.08-13.4L269.08-13.4 260.73-13.4ZM292.98-13.4L292.98-6.95Q292.98-3.55 291.48-1.78 289.98 0 287.13 0L287.13 0Q284.43 0 282.93-1.63 281.43-3.25 281.43-7.15L281.43-7.15 281.43-28.25Q281.43-29.85 281.86-31.03 282.28-32.2 283.08-32.9 283.88-33.6 284.88-33.93 285.88-34.25 287.13-34.25L287.13-34.25 303.53-34.25Q306.43-34.25 307.86-33.35 309.28-32.45 309.28-30.1L309.28-30.1Q309.28-27.9 308.06-27.03 306.83-26.15 304.03-26.15L304.03-26.15 292.98-26.15 292.98-20.3 301.78-20.3Q303.13-20.3 304.06-20.1 304.98-19.9 305.56-19.43 306.13-18.95 306.36-18.28 306.58-17.6 306.58-16.55L306.58-16.55Q306.58-14.85 305.33-14.13 304.08-13.4 301.33-13.4L301.33-13.4 292.98-13.4ZM325.58-20.3L334.18-20.3Q336.83-20.3 337.9-19.45 338.98-18.6 338.98-16.55L338.98-16.55Q338.98-14.85 337.7-14.13 336.43-13.4 333.73-13.4L333.73-13.4 325.63-13.4 325.63-8.1 336.48-8.05Q339.28-8.05 340.5-7.23 341.73-6.4 341.73-4.3L341.73-4.3Q341.73-1.9 340.3-0.95 338.88 0 335.98 0L335.98 0 319.78 0Q316.83 0 315.45-1.58 314.08-3.15 314.08-7.15L314.08-7.15 314.08-28.25Q314.08-34.25 319.78-34.25L319.78-34.25 335.98-34.25Q338.88-34.25 340.3-33.35 341.73-32.45 341.73-30.1L341.73-30.1Q341.73-27.9 340.5-27.03 339.28-26.15 336.48-26.15L336.48-26.15 325.58-26.15 325.58-20.3ZM359.18-20.3L367.78-20.3Q370.43-20.3 371.5-19.45 372.58-18.6 372.58-16.55L372.58-16.55Q372.58-14.85 371.3-14.13 370.03-13.4 367.33-13.4L367.33-13.4 359.23-13.4 359.23-8.1 370.08-8.05Q372.88-8.05 374.1-7.23 375.33-6.4 375.33-4.3L375.33-4.3Q375.33-1.9 373.9-0.95 372.48 0 369.58 0L369.58 0 353.38 0Q350.43 0 349.05-1.58 347.68-3.15 347.68-7.15L347.68-7.15 347.68-28.25Q347.68-34.25 353.38-34.25L353.38-34.25 369.58-34.25Q372.48-34.25 373.9-33.35 375.33-32.45 375.33-30.1L375.33-30.1Q375.33-27.9 374.1-27.03 372.88-26.15 370.08-26.15L370.08-26.15 359.18-26.15 359.18-20.3Z" opacity="1" transform="matrix(1,0,0,1,0,0)" fill="#6f605b" class="undefined-text-0" data-fill-palette-color="primary" id="text-0"></path></svg></g></svg></g></svg></g></svg></g><g></g></svg></g></svg><rect width="395.52" height="99.97309996609441" fill="none" stroke="none" visibility="hidden"></rect></g></svg></g></svg>