
<svg xmlns="http://www.w3.org/2000/svg" xmlns:xlink="http://www.w3.org/1999/xlink" width="100" height="32" viewBox="0 0 100 32">
    <defs>
        <path id="a" d="M0 .24h99.83v30.777H0z"/>
        <path id="c" d="M0 .24h99.83v30.777H0"/>
    </defs>
    <g fill="none" fill-rule="evenodd">
        <g>
            <mask id="b" fill="#fff">
                <use xlink:href="#a"/>
            </mask>
            <path fill="#FF7101" d="M2.183.545c.019-.171.192-.304.346-.304h.309c.096 0 .27.076.327.19l4.47 8.199h.039L12.144.43c.057-.114.23-.19.327-.19h.308c.154 0 .328.133.347.304l2.177 12.753c.039.247-.135.418-.366.418h-2.273c-.174 0-.347-.152-.367-.304l-.866-5.864h-.039l-3.237 6.149a.451.451 0 0 1-.327.208H7.48a.418.418 0 0 1-.327-.208L3.898 7.548h-.04l-.847 5.864a.374.374 0 0 1-.366.304H.372c-.232 0-.405-.171-.367-.418L2.183.545z" mask="url(#b)"/>
        </g>
        <path fill="#FF7101" d="M30.488 9.161L29.024 6.03h-.02L27.56 9.16h2.928zm-7.919 4.061L28.6.45a.393.393 0 0 1 .329-.209h.192c.135 0 .27.095.328.209l6.03 12.772c.116.247-.039.494-.327.494h-2.139c-.346 0-.501-.114-.674-.475l-.694-1.5h-5.24l-.694 1.52a.718.718 0 0 1-.693.455h-2.12c-.289 0-.443-.247-.328-.494zM25.758 18.093c0-.19.154-.36.366-.36h2.292c.193 0 .367.17.367.36v10.134h4.585c.212 0 .366.171.366.36v2.07c0 .189-.154.36-.366.36h-7.244a.363.363 0 0 1-.366-.36V18.093zM44.47.583c0-.19.173-.342.366-.342h.482l7.687 7.288h.02V.792c0-.19.154-.361.365-.361h2.312c.193 0 .367.17.367.36v12.773c0 .19-.174.341-.367.341h-.308a.567.567 0 0 1-.25-.094l-7.61-7.535h-.02v7.08c0 .189-.154.36-.366.36h-2.292a.376.376 0 0 1-.367-.36L44.47.582zM51.744 26.462l-1.464-3.131h-.02l-1.445 3.131h2.929zm-7.92 4.062l6.031-12.773a.393.393 0 0 1 .328-.209h.193c.134 0 .27.095.327.21l6.03 12.772c.116.246-.038.493-.327.493h-2.139c-.347 0-.5-.114-.674-.475l-.694-1.499h-5.24l-.693 1.519a.718.718 0 0 1-.694.455h-2.12c-.288 0-.442-.247-.327-.493zM72.44.26c1.618 0 3.39.664 4.7 1.784.174.132.193.36.039.512L75.657 4.15a.411.411 0 0 1-.52.02c-.733-.665-1.58-.912-2.524-.912-2.1 0-3.795 1.746-3.795 3.834 0 2.069 1.714 3.776 3.814 3.776.559 0 1.137-.075 1.715-.303v-1.1h-1.214c-.212 0-.366-.152-.366-.343V7.244c0-.209.154-.36.366-.36h3.872c.193 0 .347.17.347.36l.02 5.105a.465.465 0 0 1-.155.303s-1.984 1.234-4.777 1.234c-3.834 0-6.917-2.998-6.917-6.794 0-3.796 3.083-6.832 6.917-6.832M70.07 20.521h-2.756a.363.363 0 0 1-.366-.36v-2.069c0-.19.154-.36.366-.36h8.555c.21 0 .366.17.366.36v2.07c0 .189-.155.36-.366.36h-2.756v10.134c0 .19-.173.36-.366.36h-2.312a.376.376 0 0 1-.366-.36V20.521z"/>
        <g>
            <mask id="d" fill="#fff">
                <use xlink:href="#c"/>
            </mask>
            <path fill="#FF7101" d="M92.894 10.868c2.12 0 3.854-1.708 3.854-3.776 0-2.088-1.734-3.815-3.854-3.815-2.1 0-3.833 1.727-3.833 3.815 0 2.068 1.734 3.776 3.833 3.776m0-10.628c3.854 0 6.937 3.056 6.937 6.852 0 3.795-3.083 6.813-6.937 6.813-3.852 0-6.916-3.018-6.916-6.813 0-3.796 3.064-6.852 6.916-6.852" mask="url(#d)"/>
        </g>
        <path fill="#FF7101" d="M88.916 18.092c0-.19.154-.36.366-.36h7.976c.212 0 .366.17.366.36v2.07c0 .189-.154.36-.366.36h-5.336v2.353h4.392c.193 0 .366.17.366.36v2.069a.364.364 0 0 1-.366.36h-4.392v2.563h5.336c.212 0 .366.17.366.36v2.07c0 .189-.154.36-.366.36h-7.976a.363.363 0 0 1-.366-.36V18.091zM8.645 24.954c0 .816.655 1.5 1.522 1.5.81 0 1.426-.684 1.426-1.5v-1.803H8.645v1.803zm5.414-4.763c.193 0 .366.151.366.36v4.574c0 2.334-1.927 4.251-4.258 4.251-2.389 0-4.334-1.917-4.334-4.232v-1.993H1.304a.376.376 0 0 1-.365-.36v-2.24c0-.209.173-.36.365-.36H14.06z"/>
    </g>
</svg>
