<svg xmlns="http://www.w3.org/2000/svg" width="50" height="50" viewBox="0 0 50 50">
    <g fill="none" fill-rule="evenodd">
        <path fill="#CBCBCB" d="M24.964 49.683C11.199 49.683 0 38.54 0 24.841 0 11.144 11.199 0 24.964 0c13.765 0 24.963 11.144 24.963 24.841 0 13.698-11.198 24.842-24.963 24.842zm0-46.61c-12.062 0-21.876 9.766-21.876 21.768 0 12.004 9.814 21.769 21.876 21.769 12.062 0 21.875-9.765 21.875-21.769 0-12.002-9.813-21.768-21.875-21.768z"/>
        <path fill="#CBCBCB" d="M14.923 24.842c0 .957-.779 1.732-1.74 1.732-.962 0-1.741-.775-1.741-1.732s.78-1.732 1.74-1.732c.962 0 1.741.775 1.741 1.732M38.162 24.842c0 .957-.78 1.732-1.741 1.732-.962 0-1.741-.775-1.741-1.732s.78-1.732 1.74-1.732c.962 0 1.742.775 1.742 1.732"/>
        <path stroke="#979797" stroke-width="2" d="M25.536 35.8h.353-.353z"/>
        <path fill="#CBCBCB" fill-rule="nonzero" d="M25.135 37.069c4.318 0 7.326 1.74 7.326 1.74.494.245 1.106.051 1.37-.44l.327-.605a.901.901 0 0 0-.44-1.28s-4.255-2.042-8.583-2.042c-4.629 0-8.555 2.026-8.555 2.026a.948.948 0 0 0-.45 1.31l.29.577a1 1 0 0 0 1.346.433s2.75-1.72 7.369-1.72z"/>
    </g>
</svg>