<svg xmlns="http://www.w3.org/2000/svg" width="50" height="50" viewBox="0 0 50 50">
    <g fill="#CBCBCB" fill-rule="evenodd">
        <path d="M24.899 49.964C11.169 49.964 0 38.757 0 24.982 0 11.207 11.17 0 24.899 0c13.729 0 24.898 11.207 24.898 24.982 0 13.775-11.17 24.982-24.898 24.982zm0-46.873C12.868 3.09 3.08 12.91 3.08 24.98c0 12.072 9.788 21.892 21.819 21.892 12.03 0 21.818-9.82 21.818-21.891 0-12.07-9.788-21.891-21.818-21.891z"/>
        <path fill-rule="nonzero" d="M24.915 36.865c-4.307 0-7.695-1.935-7.695-1.935a.576.576 0 0 0-.775.245l-.734 1.373c-.15.279-.04.61.255.74 0 0 4.632 2.218 8.949 2.218 4.616 0 8.919-2.209 8.919-2.209a.567.567 0 0 0 .249-.773L33.42 35.2a.569.569 0 0 0-.776-.251s-3.123 1.917-7.73 1.917z"/>
        <path d="M14.885 24.982c0 .962-.778 1.742-1.737 1.742a1.74 1.74 0 0 1-1.736-1.742 1.74 1.74 0 0 1 1.736-1.742c.96 0 1.737.78 1.737 1.742M38.062 24.982c0 .962-.777 1.742-1.736 1.742a1.74 1.74 0 0 1-1.737-1.742 1.74 1.74 0 0 1 1.737-1.742c.959 0 1.736.78 1.736 1.742"/>
    </g>
</svg>