<svg xmlns="http://www.w3.org/2000/svg" width="50" height="50" viewBox="0 0 50 50">
    <g fill="#FF7100" fill-rule="evenodd">
        <path d="M14.058 39.445a4.807 4.807 0 0 1-3.43-1.43 4.815 4.815 0 0 1-1.4-3.43 4.817 4.817 0 0 1 1.43-3.417l2.192-2.18 2.172 2.195-2.193 2.18a1.739 1.739 0 0 0-.516 1.236 1.744 1.744 0 0 0 2.973 1.25l2.193-2.182 2.172 2.196-2.193 2.18a4.808 4.808 0 0 1-3.4 1.402"/>
        <path d="M24.898 49.964C11.17 49.964 0 38.757 0 24.982 0 11.207 11.17 0 24.898 0c13.73 0 24.9 11.207 24.9 24.982 0 13.775-11.17 24.982-24.9 24.982zm0-46.873c-12.03 0-21.818 9.82-21.818 21.89 0 12.072 9.788 21.892 21.818 21.892 12.031 0 21.819-9.82 21.819-21.891 0-12.07-9.788-21.891-21.819-21.891z"/>
        <path d="M11.544 26.082h3.068c0 5.265 4.598 9.774 10.2 9.774 5.702 0 10.3-4.51 10.3-9.774h3.068c0 6.923-5.974 12.782-13.368 12.782-7.293 0-13.268-5.859-13.268-12.782zM15.019 20.854a1.74 1.74 0 0 1-1.737 1.743 1.74 1.74 0 0 1-1.738-1.743 1.74 1.74 0 0 1 1.738-1.743c.959 0 1.737.78 1.737 1.743M38.18 20.854a1.74 1.74 0 0 1-1.737 1.743 1.74 1.74 0 0 1-1.737-1.743 1.74 1.74 0 0 1 1.737-1.743c.96 0 1.737.78 1.737 1.743"/>
    </g>
</svg>